<?xml version="1.0" encoding="UTF-8"?>
<svg id="Layer_1" data-name="Layer 1" xmlns="http://www.w3.org/2000/svg" xmlns:xlink="http://www.w3.org/1999/xlink" viewBox="0 0 656.64 470.59">
  <defs>
    <style>
      .cls-1 {
        fill: #fff;
      }

      .cls-2 {
        fill: #d6b294;
      }

      .cls-3 {
        fill: #faa31a;
      }

      .cls-4 {
        clip-path: url(#clippath-2);
      }

      .cls-5 {
        fill: #d61c51;
      }

      .cls-6 {
        fill: #d6e1f3;
      }

      .cls-7 {
        clip-path: url(#clippath-1);
      }

      .cls-8 {
        fill: #8296be;
      }

      .cls-9 {
        fill: #ed0a71;
      }

      .cls-10 {
        fill: #eff4fb;
      }

      .cls-11 {
        fill: #c8d5ee;
      }

      .cls-12 {
        clip-path: url(#clippath);
      }

      .cls-13 {
        fill: #bf1f36;
      }

      .cls-14 {
        clip-path: url(#clippath-3);
      }

      .cls-15 {
        fill: #260e10;
      }

      .cls-16 {
        fill: #1b3758;
      }

      .cls-17 {
        fill: #bfceea;
      }
    </style>
    <clipPath id="clippath">
      <path class="cls-9" d="m439.86,269.88c-2.7-8.47-1.88-17.26-1.58-26,.17-5.07-2.05-12.27-7.01-14.39-.25-.11-.48-.12-.68-.06-.99-.24-1.74.12-2.43.93-.66.25-1.32.51-2.02.69-.84.22-4.21.44-4.56-.63-.18-.55-.69-.94-1.24-.8-.1-.04-.2-.06-.31-.08-2.47-.3-5.52.05-7.48-1.82-.6-.57-1.45-.34-1.75.42-.96,2.42-1.97,4.76-3.3,7-.09.15-.13.3-.14.45-.32.38-.43.96,0,1.34,4.85,4.21,6.63,9.49,6.67,15.88.03,6.43.51,12.85.37,19.29-.01.5.3.98.78,1.12,7.59,2.21,17.13,2.13,24.09-2.03.41-.25.74-.79.58-1.3Z"/>
    </clipPath>
    <clipPath id="clippath-1">
      <path class="cls-9" d="m569.53,241.43c1.42-1.81,3.28-3.01,5.44-3.65,1.9,1.75,5.32,2.01,6.98.19.49-.25.96-.57,1.37-.96.04,0,.08,0,.12.01.04.07.06.15.05.24,3.16.48,6.26,1.47,7.92,4.49,1.62,2.92,1.61,7.06,1.9,10.31.44,4.97.59,9.98,1.61,14.88.99,4.71,3.57,8.93,4.32,13.68.03.16-.01.35-.17.43-4.84,2.26-10.72,1.6-15.9,1.97-3.01.22-6.02.38-9.02.59-1.56.11-3.52.57-4.91-.37.06-.46.09-.93.13-1.4.31-3.32.65-6.65.7-9.98.09-1.28.19-2.55.35-3.82.1-.8.19-6.34.07-8.84-.02-.39-3.67-3.97-5.42-4.08-.24-.01-.45-.24-.38-.49,1.24-4.42,1.93-9.52,4.83-13.21Z"/>
    </clipPath>
    <clipPath id="clippath-2">
      <path class="cls-9" d="m515.11,253.77c-1.36-1.86-3.18-3.12-5.33-3.83-1.95,1.68-5.38,1.83-6.98-.04-.48-.26-1.53-.84-1.52-.76-3.17.38-6.3,1.26-8.07,4.22-1.71,2.87-1.84,7-2.23,10.24-.6,4.96-.91,9.95-2.09,14.81-1.14,4.68-3.85,8.8-4.76,13.53-.03.16,0,.36.16.43,4.76,2.42,10.66,1.96,15.83,2.5,3,.32,6,.58,9,.89,1.55.16,3.49.69,4.92-.2-.04-.47-.07-.93-.08-1.4-.2-3.32-.43-6.67-.37-10-.05-1.28-.11-2.56-.22-3.83-.08-.8-.19-1.6-.32-2.4-1.02-.46-1.96-1.09-2.6-2.03-.21-.32.29-.61.51-.3.49.72,1.19,1.24,1.99,1.65-.29-1.73-.61-3.46-.71-5.2-.08-1.47.06-3.19,1.71-3.55,1.71-.37,3.43-.84,5.18-.9.24,0,.46-.22.39-.48-1.1-4.45-1.63-9.58-4.41-13.36Z"/>
    </clipPath>
    <clipPath id="clippath-3">
      <path class="cls-9" d="m310.36,278.5c-.02-.37-.05-.74-.06-1.11,0-.16,0-.32.02-.48,0-.06,0-.1-.03-.15-.1-4.52-.71-9.56-4.13-12.77-1.69-1.58-3.91-2.41-6.19-2.26-1.05.07-1.77.58-2.65,1.1-1.83,1.08-3.81.58-5.58-.33-1.29-.66-2.36-1.52-2.97-2.87-.32-.7-.59-1.26-1.33-1.5-1.08-.35-2.05-.34-2.98-.11-4.1-.72-8.94,1.96-11.25,5.17-1.54,2.14-2.23,4.68-3.11,7.15-.5,1.42-1.1,2.79-1.53,4.25-.37,1.26-.33,2.53-.47,3.82,0,.05,0,.1.03.15.03-.01.05-.02.08-.03,2.46-.25,4.83-.64,7.1.59.14.08.17.23.15.37-.02.16-.04.32-.06.48.42,1.1.24,2.4.2,3.54-.09,2.25.12,4.58.36,6.82.41,3.91,1.5,7.74,1.93,11.64,1.5-1.39,3.38-1.36,5.32-1.28,1.98.08,3.86.28,5.82.61,3.36.57,6.58.26,9.72-1.13,2.65-1.17,2.59-3.48,2.61-6.12.01-2.76.49-5.52.42-8.27.11.26.23.53.37.78.15.26.49.27.65.02,1.22-1.92,3.25-2.47,5.16-3.35.93-.22,1.87-.37,2.8-.5.11-.02.22-.15.22-.27-.05-1.36-.45-2.65-.6-3.97Z"/>
    </clipPath>
  </defs>
  <path class="cls-17" d="m432.73,95.69c-.88-5.22-5.6-9.2-11.29-9.2-4.2,0-7.87,2.17-9.86,5.41-1.42-.78-3.09-1.22-4.88-1.22-4.22,0-7.79,2.49-9,5.92-1.11-.78-2.48-1.25-3.98-1.25-3.65,0-6.6,2.75-6.6,6.15s2.96,6.15,6.6,6.15h12.97c2.59,0,34.67,4.02,34.67-5.77,0-5.66-3.62-5.34-8.64-6.2Z"/>
  <path class="cls-17" d="m377.77,135.86c-1.89-11.18-12-19.72-24.2-19.72-9.01,0-16.88,4.66-21.14,11.6-3.05-1.66-6.63-2.62-10.46-2.62-9.04,0-16.69,5.34-19.28,12.7-2.38-1.67-5.32-2.68-8.52-2.68-7.82,0-14.16,5.9-14.16,13.18s6.34,13.18,14.16,13.18h27.81c5.55,0,74.34,8.62,74.32-12.36,0-12.13-7.76-11.44-18.52-13.29Z"/>
  <path class="cls-9" d="m541.65,131.5l-1.46-9.84c-.34-2.28-2.5-3.85-4.83-3.49l-3.12.48c-1.99.31-3.95-.65-4.86-2.39-.72-1.32-1.49-2.6-2.33-3.81-1.14-1.62-1.08-3.79.11-5.37l1.89-2.51c1.41-1.86,1.03-4.49-.87-5.83l-8.13-5.88c-1.88-1.36-4.55-.95-5.95.92l-1.89,2.5c-1.2,1.6-3.29,2.28-5.21,1.71-1.43-.44-2.91-.8-4.41-1.06-1.96-.34-3.48-1.89-3.77-3.84l-.46-3.06c-.34-2.28-2.5-3.84-4.82-3.48l-10.04,1.54c-2.33.36-3.94,2.49-3.61,4.77l.46,3.06c.28,1.95-.72,3.88-2.5,4.81-1.35.7-2.65,1.49-3.9,2.33-1.66,1.12-3.85,1.1-5.47-.07l-2.53-1.83c-1.9-1.36-4.56-.95-5.97.92l-6.07,8.06c-1.41,1.86-1.02,4.48.87,5.83l2.53,1.83c1.62,1.16,2.3,3.21,1.68,5.1-.45,1.41-.84,2.86-1.12,4.33-.37,1.94-1.97,3.44-3.95,3.75l-3.11.48c-2.33.36-3.94,2.5-3.6,4.77l1.46,9.84c.34,2.29,2.51,3.84,4.83,3.48l3.12-.48c1.99-.31,3.95.65,4.86,2.39.7,1.32,1.48,2.59,2.33,3.81,1.14,1.63,1.08,3.79-.12,5.37l-1.89,2.49c-1.41,1.88-1.02,4.49.87,5.85l8.13,5.86c1.89,1.36,4.55.95,5.96-.91l1.88-2.5c1.21-1.59,3.29-2.29,5.21-1.71,1.44.44,2.91.79,4.41,1.06,1.97.34,3.48,1.89,3.77,3.84l.45,3.05c.35,2.28,2.5,3.85,4.84,3.49l10.03-1.54c2.33-.36,3.94-2.5,3.6-4.78l-.45-3.05c-.29-1.95.7-3.88,2.48-4.8,1.36-.72,2.67-1.49,3.92-2.34,1.67-1.13,3.86-1.08,5.47.07l2.54,1.81c1.88,1.36,4.54.96,5.96-.92l6.06-8.04c1.42-1.87,1.03-4.47-.87-5.84l-2.53-1.82c-1.61-1.16-2.29-3.2-1.67-5.1.45-1.41.83-2.86,1.12-4.33.36-1.94,1.96-3.44,3.94-3.75l3.13-.48c2.33-.36,3.94-2.49,3.6-4.78Zm-43.05,24.42c-13.93,3.25-27.3-6.39-28.25-20.37-.74-11.01,6.94-21.19,17.9-23.75,13.92-3.24,27.29,6.4,28.23,20.38.74,10.99-6.94,21.17-17.89,23.73Z"/>
  <g>
    <g>
      <g>
        <rect class="cls-8" x="394.76" y="207.67" width="5.94" height="92.26"/>
        <rect class="cls-8" x="380.31" y="296.87" width="34.84" height="4.56"/>
        <polygon class="cls-8" points="380.31 296.87 368.11 329.26 388.25 296.87 380.31 296.87"/>
        <polygon class="cls-8" points="416.31 296.87 428.52 329.26 408.38 296.87 416.31 296.87"/>
        <polygon class="cls-8" points="397.74 329.26 392.1 296.87 402.81 296.87 397.74 329.26"/>
      </g>
      <g>
        <rect class="cls-6" x="320.16" y="141.44" width="151.48" height="100.03"/>
        <g>
          <rect class="cls-17" x="400.73" y="209.06" width="58.25" height="3.44"/>
          <rect class="cls-17" x="400.73" y="218.54" width="58.25" height="3.45"/>
          <rect class="cls-17" x="401.6" y="227.47" width="20.93" height="3.44"/>
          <rect class="cls-17" x="426.05" y="227.29" width="19.32" height="3.45"/>
          <rect class="cls-1" x="448.52" y="227.47" width="10.46" height="3.44"/>
        </g>
        <g>
          <rect class="cls-17" x="335.33" y="209.06" width="58.25" height="3.44"/>
          <rect class="cls-17" x="335.33" y="218.54" width="58.25" height="3.45"/>
          <rect class="cls-1" x="336.19" y="227.47" width="20.93" height="3.44"/>
          <rect class="cls-17" x="360.64" y="227.29" width="19.32" height="3.45"/>
          <rect class="cls-1" x="383.11" y="227.47" width="10.46" height="3.44"/>
        </g>
        <g>
          <g>
            <path class="cls-8" d="m337.86,174.26c.09-7.77,6.28-14.05,13.91-14.05s13.82,6.27,13.9,14.05h4.88c-.09-10.52-8.46-19.03-18.78-19.03s-18.7,8.5-18.78,19.03h4.88Z"/>
            <path class="cls-9" d="m337.86,176.39c.09,7.77,6.28,14.04,13.91,14.04s13.82-6.27,13.9-14.04h4.88c-.09,10.52-8.46,19.03-18.78,19.03s-18.7-8.5-18.78-19.03h4.88Z"/>
          </g>
          <g>
            <path class="cls-16" d="m382.08,174.26c.09-7.77,6.28-14.05,13.9-14.05s13.82,6.27,13.9,14.05h4.88c-.09-10.52-8.46-19.03-18.78-19.03s-18.69,8.5-18.78,19.03h4.88Z"/>
            <path class="cls-9" d="m382.08,176.39c.09,7.77,6.28,14.04,13.9,14.04s13.82-6.27,13.9-14.04h4.88c-.09,10.52-8.46,19.03-18.78,19.03s-18.69-8.5-18.78-19.03h4.88Z"/>
          </g>
          <g>
            <path class="cls-1" d="m426.3,174.26c.09-7.77,6.28-14.05,13.91-14.05s13.81,6.27,13.9,14.05h4.88c-.09-10.52-8.46-19.03-18.78-19.03s-18.7,8.5-18.78,19.03h4.88Z"/>
            <path class="cls-1" d="m426.3,176.39c.09,7.77,6.28,14.04,13.91,14.04s13.81-6.27,13.9-14.04h4.88c-.09,10.52-8.46,19.03-18.78,19.03s-18.7-8.5-18.78-19.03h4.88Z"/>
          </g>
        </g>
      </g>
      <path class="cls-16" d="m383.26,140.05c2.15,7.12,8.07,12.24,15.06,12.24s12.91-5.12,15.06-12.24h-30.11Z"/>
    </g>
    <g>
      <g>
        <path class="cls-1" d="m421.65,349.37c.04-.2-.04-.46-.26-.51-.33-.07-.67-.11-1-.13-.02-.03-.03-.06-.05-.09-.17-.25-.57-.16-.71.07-1.08.01-2.16.15-3.25.02-.22-.02-.43.23-.37.45.71,2.41.45,4.62.13,7.07-.02.13.08.22.19.23.02.08.04.16.07.24.14.36.34.65.59.89.26.48.67.79,1.22.68.46.14.95.2,1.43.22.96.03,2.34-.41,2.39-1.59.12-2.55-.94-4.94-.4-7.56Z"/>
        <path class="cls-8" d="m421.92,360.61c.43-1.33.33-2.72.41-4.17-.07-.02-.15-.04-.23,0-1.51,2.11-5.78,2.24-5.79-1.01-.24-.27-.52-.48-.93-.65-1.36-.59-3.06-.97-4.5-1.37-1.63-.46-5.14-.91-4.38,1.63-.02.58.2,1.24.65,1.76,1.79,2.08,4.75,3.51,7.34,4.26,2.28.66,5.63.94,7.32-.38.03-.03.07-.05.1-.08Z"/>
      </g>
      <g>
        <path class="cls-1" d="m439.7,344.43c0-.21-.14-.44-.37-.43-.34.01-.67.06-1,.12-.03-.02-.04-.05-.07-.07-.23-.2-.59-.01-.68.24-1.05.27-2.07.67-3.15.81-.22.02-.36.32-.25.52,1.25,2.17,1.51,4.38,1.76,6.83.01.13.13.19.24.18.04.07.08.15.13.22.22.32.49.55.78.72.37.4.84.6,1.35.37.48.02.97-.04,1.44-.14.94-.2,2.18-.96,1.95-2.12-.48-2.51-2.06-4.57-2.14-7.25Z"/>
        <path class="cls-8" d="m442.56,355.28c.11-1.39-.31-2.71-.57-4.14-.08,0-.16,0-.22.06-.98,2.42-5.1,3.57-5.86.42-.3-.2-.62-.34-1.05-.41-1.46-.24-3.2-.2-4.69-.24-1.69-.05-5.21.36-3.88,2.65.12.57.48,1.16,1.04,1.55,2.23,1.59,5.44,2.26,8.13,2.36,2.36.09,5.68-.45,7.03-2.14.03-.03.05-.06.08-.1Z"/>
      </g>
      <g>
        <path class="cls-13" d="m434.92,348.85c2.07.22,4.13.3,6.09-.42.23-.09.47-.18.7-.27-.04-5.3-1.18-10.51-1.77-15.78-.85-7.68-3.49-15.74-2.73-23.45.7-7.03,3.45-13.68,4.12-20.76.63-6.74-1.28-12.28-2.19-18.8-.12-.88-1.09-1.11-1.78-.83-3.39,1.37-14.88.86-14.75,6.31-1.07,15.16-2.94,30.76,1.93,45.42,2.43,7.32,4.04,14.9,6.82,22.09,1.11,2.87,2.07,4.95,3.54,6.5Z"/>
        <path class="cls-5" d="m432.66,270.51c-.1-.51-.63-1.05-1.18-1-3.5.29-7.05.05-10.56.15-1.58.05-4.56-.19-5.91,1.12-1.01,4.77-1.87,9.57-2.63,14.4-.02.22-.05.45-.07.67-.35,2.91-.79,5.81-1.27,8.71-.32,2.46-.62,4.93-.9,7.4-.34,6.08-.8,12.15-.84,18.25-.07,9.2,1.67,18.11,4.4,26.84.6,1.91,1.1,4.95,2.29,6.94,2.71.61,5.36.27,7.95-.57.55-6.8.44-13.59.08-20.41-.42-8.15-1.71-15.99.4-24,1.72-6.51,4.79-12.59,7-18.94,2.21-6.39,2.54-12.94,1.24-19.56Z"/>
        <path class="cls-2" d="m413.63,231.65c-2.04-1.87-4-3.44-5.76-5.65-.1-.12-.18-.25-.28-.37-1.59-2.48-3.1-5.02-4.3-7.81-2.16-5.01-3.31-10.25-4.92-15.38.05-.08.09-.16.13-.24-.35-1.73-.38-3.5-.31-5.28-.04-1.1-.03-2.23.07-3.43.09-1.02-.46-4.83-1.4-2.13-.16.47-.34.93-.53,1.38,0,1.07-.08,2.14-.73,2.9-.45.53-1.01.95-1.69,1.08-.51.1-.95.16-1.29.37-.06.12-.11.24-.15.37-.54,1.68.19,3.18.79,4.74,1.24,3.24,2.47,5.83,2.96,9.36.75,5.37,1.72,10.73,4.58,15.38,1.53,2.48,3.54,5.49,5.98,7.56.62.74,1.28,1.42,1.97,2,.85,1.11,1.75,2.17,2.73,3.21.52.55,1.55.52,1.92-.2,1.77-3.42,3.45-4.9.21-7.86Z"/>
        <g>
          <path class="cls-2" d="m428.54,222.73c1.39-3.25,3.1-7.07,2.69-9.9.01-.25.01-.51-.01-.78-.2-2.29-2.27-3.99-4.3-3.99-1.07-.34-2.21-.11-3.33.45-.17.2-.36.39-.54.58-1.25,2.25-3.8,3.39-5.15,5.6-.06.11-.12.2-.17.31.29.48.59.95.93,1.4.15.2.21.49,0,.68-.85.79-1.55,1.86-1.64,2.97.1.53.27,1.02.5,1.48,1.18.97,2.84,1.39,4.34,1.16.46-.07.71.37.51.71.02.06.03.14,0,.23-.12.41-.22.83-.32,1.24.01.88-.06,1.76-.13,2.63-.17.95-.3,1.91.02,2.85.77,2.29,3.8,1.94,5.61,1.6.13-.02.25-.07.35-.13.09,0,.18,0,.28,0,.67-.03,1.38-.64,1.15-1.4-.71-2.34-.87-5.11-.8-7.68Z"/>
          <path class="cls-15" d="m435.96,212.64c-.31-2.18-1.55-4.5-3.7-5.28-1.38-.5-2.75-.59-4.21-.66-2.29-.11-2.86-2.19-4.64-3.17-.7-.39-1.56-.1-1.82.7-.11.36-.19.72-.25,1.08-.59,1.58-.61,3.29-.19,4.99.15.6.66.87,1.23.8,2.03-.27,4.35.12,5.64,1.78.18.82.15,1.64-.12,2.45-.62.67-1.32,1.35-1.51,2.28.03,0,.06-.03.1-.03.68-.05,1.32-.55,2.05-.5.66.05,1.23.59.99,1.32-.25.79-1,1.14-1.73,1.5-.02.05-.04.11-.06.16-.26.78.35,1.42,1.06,1.52,4.78.7,7.77-4.54,7.15-8.93Z"/>
        </g>
        <g>
          <path class="cls-9" d="m439.86,269.88c-2.7-8.47-1.88-17.26-1.58-26,.17-5.07-2.05-12.27-7.01-14.39-.25-.11-.48-.12-.68-.06-.99-.24-1.74.12-2.43.93-.66.25-1.32.51-2.02.69-.84.22-4.21.44-4.56-.63-.18-.55-.69-.94-1.24-.8-.1-.04-.2-.06-.31-.08-2.47-.3-5.52.05-7.48-1.82-.6-.57-1.45-.34-1.75.42-.96,2.42-1.97,4.76-3.3,7-.09.15-.13.3-.14.45-.32.38-.43.96,0,1.34,4.85,4.21,6.63,9.49,6.67,15.88.03,6.43.51,12.85.37,19.29-.01.5.3.98.78,1.12,7.59,2.21,17.13,2.13,24.09-2.03.41-.25.74-.79.58-1.3Z"/>
          <g class="cls-12">
            <path class="cls-5" d="m424.85,257.01c-3.13-.79-6.32,1.39-8.43-1.9-2.14-3.35-1.75-7.75-3.89-11.17-.59-.95-2.05-.71-2.13.49-.46,7.6,1.4,15.13,2.43,22.62.18,1.34.41,2.56.7,3.64.04,2.5.46,5.37,3.42,5.24.14,0,.27-.04.4-.08,1.17.51,2.65.74,4.55.64.46-.03.86-.35,1.07-.76.88-.04,1.48-1.29.53-1.78-6.79-3.47-.76-11,1.95-15.35.35-.56.07-1.43-.59-1.6Zm-11.86-4.07c-.07-.58-.13-1.15-.18-1.73.15.59.31,1.17.48,1.75-.1-.02-.2-.02-.29-.02Z"/>
          </g>
        </g>
      </g>
    </g>
  </g>
  <g>
    <g>
      <g>
        <path class="cls-1" d="m570.12,354.6c.02-.6.78-6.32.78-6.32l-4.65-.16-.68,6.33,3.78.13"/>
        <path class="cls-6" d="m558.25,359.99c2.25.31,4.34-.53,6.55-.63,1.47-.06,3.29.26,4.66-.43,1.11-.56,1.48-1.57,1.5-2.8.01-.46-.01-.97-.17-1.38,0-.36-.04-.74-.21-1.13-.08-.2-.38-.27-.55-.16-1.54,1.13-3.52-.99-5.31-.39-1.12.37-2,1.24-3.11,1.62-.89.3-1.75.62-2.61,1-1.08.48-2.65,1.27-2.91,2.56-.23,1.21,1.31,1.63,2.15,1.75Z"/>
      </g>
      <path class="cls-2" d="m544.91,256.28c.3.13.6.24.89.19.19-.02.3-.22.26-.44-.03-.13-.07-.26-.1-.38-.05-.49-.1-.98-.09-1.49.04-.22.09-.44.16-.66.01-.04.03-.07.05-.1.16-.17.38-.12.56.29.12.27.24.55.35.83.49,1.2,1.1,2.69,2.17,3.21,1.22.59,2.69.98,4.19,1.05.69.08,1.4.11,2.14.11.88-.01,1.84-.05,2.77-.3,3.17-.19,6.23-1.41,9.04-4.1,1.42-1.36,2.51-3.17,3.74-4.74.58-.74,1.5,0,1.9.42.59.61,1.54,1.5,1.34,2.66-.02.11-.05.23-.08.34-1.12,2.08-2.7,3.75-4.32,5.27-.64.6-1.31,1.13-1.98,1.66-.87.52-1.78.95-2.75,1.27-3.35,1.14-6.59,1.05-9.87,1.06-.03-.03-.07-.06-.12-.06-2.7-.15-5.27-.97-7.92-1.25-.19-.08-.39-.14-.6-.17-.66-.11-1.35-.1-2.03-.02-.86-.35-1.58-.88-2.22-1.53.09-.74.17-1.48.39-2.17.54-.71,1.36-.92,2.15-.94Z"/>
      <path class="cls-13" d="m571.34,351.47s-.83-7.54-1.78-14.63c-.9-6.73-2.87-15.49-1.66-20.95,1.48-6.68,11.96-14.69,13.93-21.37,1.96-6.68,3.98-8.7,3.36-13.02-.62-4.32-14.45-3.62-14.45-3.62,0,0-6.27,14.71-10.2,22.75-6.08,12.45-3.9,16.92-4.03,19.49-.13,2.57,8.62,31.13,8.62,31.13l6.21.21Z"/>
      <g>
        <path class="cls-1" d="m591.19,360.47c.02-.59.78-6.32.78-6.32l-4.65-.16-.68,6.33,3.78.13"/>
        <path class="cls-6" d="m579.32,365.86c2.25.31,4.33-.53,6.55-.63,1.47-.06,3.29.26,4.66-.43,1.11-.56,1.47-1.57,1.5-2.8.01-.46,0-.97-.17-1.38,0-.37-.05-.74-.21-1.14-.08-.19-.38-.27-.55-.15-1.54,1.13-3.52-.99-5.32-.4-1.11.37-2,1.25-3.11,1.62-.89.3-1.75.62-2.6,1-1.08.48-2.65,1.27-2.91,2.56-.23,1.22,1.31,1.63,2.15,1.75Z"/>
      </g>
      <path class="cls-5" d="m595.29,275.09s2.37,4.84.9,14.31c-1.47,9.48-1.75,24.15-2.23,27.3-.49,3.16,1.78,6.01,1.21,14.33-.57,8.31-2.55,26.11-2.55,26.11l-5.87-.2s-1.85-30.22-2.73-33.03c-.88-2.81-3.08-6.85-2.57-10.6.5-3.75-4.44-21.95-4.44-21.95l2.46-13.19,15.83-3.08Z"/>
      <g>
        <path class="cls-9" d="m569.53,241.43c1.42-1.81,3.28-3.01,5.44-3.65,1.9,1.75,5.32,2.01,6.98.19.49-.25.96-.57,1.37-.96.04,0,.08,0,.12.01.04.07.06.15.05.24,3.16.48,6.26,1.47,7.92,4.49,1.62,2.92,1.61,7.06,1.9,10.31.44,4.97.59,9.98,1.61,14.88.99,4.71,3.57,8.93,4.32,13.68.03.16-.01.35-.17.43-4.84,2.26-10.72,1.6-15.9,1.97-3.01.22-6.02.38-9.02.59-1.56.11-3.52.57-4.91-.37.06-.46.09-.93.13-1.4.31-3.32.65-6.65.7-9.98.09-1.28.19-2.55.35-3.82.1-.8.19-6.34.07-8.84-.02-.39-3.67-3.97-5.42-4.08-.24-.01-.45-.24-.38-.49,1.24-4.42,1.93-9.52,4.83-13.21Z"/>
        <g class="cls-7">
          <path class="cls-13" d="m567.67,282c.09.3.58.35.64,0,.53-2.97-1.06,3.81-.07.97,1.43,2.53,12.21.81,14.91,1,.37.03-4.67-6.46-4.95-6.64-2.85-1.82-2.97-7.43-1.78-6.75,1.14.64,2.46.91,3.71,1.28,2.94.86-1.29-5.41-3.52-8.04-1.43-1.69-4.36-15.64-4.93-10.9-.55,4.62-2.73,12.33-3.73,16.67-.96,4.15-1.59,8.28-.29,12.42Z"/>
        </g>
      </g>
      <g>
        <path class="cls-1" d="m570.78,226.78c.08,2.73.68,7.82,4.23,7.48.5,1.86-.51,4.62,1.35,5.77,1.81,1.12,5.05-.24,6.51-1.49h0c.17.12.38-.16.22-.3-.01-.01-.03-.03-.04-.05-.02-.16-.15-.29-.31-.33-2.6-2.96-.58-7.51-.59-11.06,0-1.48-.21-3.13-1.27-4.23-1.16-1.21-2.76-2.06-4.42-2.26-1.65-.2-3.36.12-4.46,1.49-1.05,1.32-1.27,3.33-1.23,4.97Z"/>
        <path class="cls-13" d="m587.42,219.19c-1.47-3.41-4.71-4.56-8.11-4.81-1.64-.12-3.46-.41-5.1-.19-.55.07-1.03.48-1.44.82-.85.71-1.78,1.41-2.59,2.18-.12.12-.17.26-.19.39-.52.25-.95.66-1.33,1.34-.43.78-.42,1.87-.52,2.72-.18,1.5-1.65,1.79-2.26,2.92-.81,1.5.38,2.76,1.28,3.8,1.02,1.19,1.21,2.98,3.08,2.93.2,0,.44-.11.49-.33.46-2.07.47-4.24,1.23-6.25.67-1.8,2.49-2.58,4.26-2.47,3.13.18,2.19,4.04,2.05,6.06-.02.33.29.66.63.57.62-.16,1.12-.43,1.68-.74.91-.52.31,3.61.26,4.08-.03.28.21.57.49.58,2.93.08,4.85-2.4,6.09-4.83,1.45-2.86,1.25-5.89,0-8.79Z"/>
      </g>
    </g>
    <g>
      <g>
        <path class="cls-1" d="m510.89,366.86c0-.6-.58-6.35-.58-6.35h4.66l.48,6.35h-3.78"/>
        <path class="cls-8" d="m524.78,370.97c-.21-1.3-1.76-2.14-2.82-2.66-.85-.41-1.69-.76-2.57-1.09-1.1-.41-1.96-1.31-3.06-1.72-1.78-.66-3.82,1.4-5.33.22-.16-.12-.46-.06-.55.13-.18.39-.24.76-.25,1.13-.17.4-.21.92-.21,1.38-.01,1.23.32,2.25,1.41,2.85,1.35.74,3.17.47,4.64.59,2.21.17,4.27,1.08,6.53.85.85-.09,2.4-.46,2.2-1.68Z"/>
      </g>
      <g>
        <path class="cls-2" d="m509.59,233.29c-1.31-1.16-3.04-1.17-4.64-.68-1.6.49-3.03,1.61-3.97,3.01-.86,1.28-.78,2.94-.54,4.39.6,3.5,3.36,7.62,1.3,11-.15.07-.25.22-.25.38-.01.02-.02.04-.03.06-.13.17.12.41.27.25h0c1.66.97,5.07,1.74,6.67.32,1.64-1.46.17-4,.35-5.93,3.55-.3,3.29-5.42,2.9-8.12-.23-1.63-.79-3.56-2.05-4.68Z"/>
        <path class="cls-15" d="m511.98,231.01c-.9-1-1.98-1.99-3.09-2.73-.9-.6-1.9-.82-2.84-.23-.72.46-1.26.87-2.12.46-.71-.34-1.48-.51-2.27-.49-1,.03-2.45.61-3,1.52-.33.54-.56,1.17-1.05,1.58-.5.42-1.13.52-1.69.82-.96.51-1.04,1.99-1.09,2.95-.04.86-.37,1.45-.64,2.22-.05.14-.06.27-.04.39-1.51.42-2.07,2.58-1.6,4.09.3.96,1.39,1.09,1.1,2.39-.1.44-.24.94-.03,1.37.61,1.25,1.8,1.65,3.1,1.66.7,0,1.38-.07,2.08.03.83.12,1.6.27,2.44.13.88-.14,1.79-.97,1.73-1.93-.05-.8-.4-1.62.43-2.12.45-.28.75-.59.89-1.1.47-1.74-.24-3.48.41-5.21,1.27.61,2.29-.22,3.21-1.23.46-.51,1.18-1.57,1.94-1.03.95.67,1.03,2.21,1.27,3.25.12.53.26,1.57.86,1.79.46.17,1.04-.13,1.22-.58.3-.77.17-1.63.06-2.42-.17-1.14-.28-2.12-.24-3.28.03-.97-.42-1.62-1.04-2.31Z"/>
      </g>
      <path class="cls-2" d="m539.24,269.44c-.3.12-.61.21-.9.16-.19-.03-.29-.23-.24-.44.04-.13.07-.26.11-.38.06-.49.13-.98.14-1.48-.04-.22-.08-.44-.14-.66-.01-.04-.03-.07-.05-.11-.15-.17-.37-.13-.57.27-.13.27-.25.54-.37.81-.53,1.19-1.18,2.66-2.27,3.14-1.24.55-2.72.89-4.22.91-.69.06-1.4.07-2.14.03-.88-.04-1.84-.11-2.76-.4-3.16-.3-6.19-1.61-8.91-4.4-1.37-1.4-2.41-3.25-3.58-4.86-.56-.76-1.5-.06-1.91.35-.61.59-1.58,1.44-1.42,2.62.01.11.04.23.07.34,1.05,2.12,2.58,3.84,4.15,5.41.62.62,1.27,1.18,1.93,1.72.85.55,1.75,1.01,2.71,1.37,3.31,1.25,6.55,1.27,9.83,1.38.03-.03.07-.05.12-.05,2.7-.06,5.3-.79,7.96-.98.19-.07.39-.13.61-.15.67-.09,1.35-.06,2.03.05.87-.32,1.61-.83,2.27-1.46-.06-.74-.12-1.49-.32-2.18-.51-.74-1.33-.97-2.11-1.01Z"/>
      <path class="cls-13" d="m509.77,363.68s-2.67-12.69-3.44-19.43c-.78-6.74,0-9.71,0-9.71,0,0-3.69-16.46-5.44-23.2-1.75-6.74-3.48-13.75-2.71-18.05.76-4.29,14.55-3.13,14.55-3.13,0,0,1.16,12.05,2.14,20.98.97,8.92,1.07,15.46,1.12,18.04.05,2.58,0,34.5,0,34.5h-6.21Z"/>
      <g>
        <path class="cls-1" d="m489.64,372.01c0-.6-.58-6.35-.58-6.35h4.66l.48,6.35h-3.78"/>
        <path class="cls-8" d="m503.53,376.12c-.21-1.3-1.76-2.14-2.82-2.66-.84-.41-1.69-.76-2.57-1.09-1.1-.41-1.96-1.31-3.06-1.72-1.78-.66-3.82,1.4-5.32.22-.16-.13-.46-.05-.55.13-.18.39-.24.76-.25,1.13-.17.4-.21.91-.21,1.37-.01,1.23.32,2.25,1.41,2.85,1.35.74,3.18.47,4.64.59,2.21.17,4.27,1.08,6.53.85.85-.09,2.41-.45,2.21-1.68Z"/>
      </g>
      <path class="cls-5" d="m488.28,286.55s-2.52,4.76-1.36,14.28c1.16,9.52.97,24.19,1.36,27.36.39,3.17-1.97,5.95-1.66,14.28.31,8.33,1.71,26.18,1.71,26.18h5.87s2.82-30.14,3.79-32.92c.97-2.78,3.29-6.75,2.91-10.51-.39-3.77,3.11-20.62,3.11-20.62v-14.44l-15.72-3.61Z"/>
      <g>
        <path class="cls-9" d="m515.11,253.77c-1.36-1.86-3.18-3.12-5.33-3.83-1.95,1.68-5.38,1.83-6.98-.04-.48-.26-1.53-.84-1.52-.76-3.17.38-6.3,1.26-8.07,4.22-1.71,2.87-1.84,7-2.23,10.24-.6,4.96-.91,9.95-2.09,14.81-1.14,4.68-3.85,8.8-4.76,13.53-.03.16,0,.36.16.43,4.76,2.42,10.66,1.96,15.83,2.5,3,.32,6,.58,9,.89,1.55.16,3.49.69,4.92-.2-.04-.47-.07-.93-.08-1.4-.2-3.32-.43-6.67-.37-10-.05-1.28-.11-2.56-.22-3.83-.08-.8-.19-1.6-.32-2.4-1.02-.46-1.96-1.09-2.6-2.03-.21-.32.29-.61.51-.3.49.72,1.19,1.24,1.99,1.65-.29-1.73-.61-3.46-.71-5.2-.08-1.47.06-3.19,1.71-3.55,1.71-.37,3.43-.84,5.18-.9.24,0,.46-.22.39-.48-1.1-4.45-1.63-9.58-4.41-13.36Z"/>
        <g class="cls-4">
          <path class="cls-13" d="m515.79,281.95c-.86-4.38-3.24-8.35-2.52-12.94.04-.21-.27-.35-.41-.19-.51.6-.99,1.22-1.45,1.86-1.39,1.72-2.61,3.58-4.09,5.22-2.31,2.56-5.39,4.27-8.15,6.27-.05.04-.03.12.01.14-.01,0-.02.02-.04.02-.03-.04-.08-.07-.14-.04-.8.36-1.55.94-2.34,1.35-.77.39-1.46.84-2.06,1.47-.04.04-.04.09-.02.13-.04.02-.08.04-.11.06-.43.14-.3.83.16.71,2.96-.8,5.96-1.42,8.92-2.19,1.26-.33,2.59-.55,3.75-1.16,1.21-.63,2.38-1.69,3.75-1.96-.41,3.47-2.84,6.92-5.75,8.65-.28.17-.22.69.15.68,2.7-.11,8.11,7.78,9.62,5.29.91,2.88-.47-3.96-.03-.97.05.36.54.32.64.02,1.44-4.1.94-8.25.12-12.43Z"/>
        </g>
      </g>
      <g>
        <g>
          <path class="cls-3" d="m541.96,168.39c-21.58,1.1-38.06,16.05-36.97,38.1.7,14.1,4.55,24.29,19.63,32.67,4.44,2.47,2.85,20.43,2.4,22.95,5.64-1.6,10.6.48,18.1.06,6.27-.35,9.66-1.35,14.8-.71-1.06-3.8-1.08-19.73,2.55-21.7,15.15-8.23,21.43-21.3,20.64-37.27-1.1-22.05-19.59-35.2-41.16-34.1Z"/>
          <path class="cls-1" d="m545.49,257.76l-1.01-.02c.01-.51-.07-1.83-.17-3.23-.09-1.29-.18-2.67-.21-3.6-.12-4.02-.29-18.47.28-30.83-.94-.03-1.85-.17-2.73-.42-.23-.07-.47-.14-.7-.22-.09,1.69-.2,3.38-.32,5.06-.19,2.71-.37,5.27-.41,7.72-.03,1.27-.05,2.65-.07,4.09-.1,6.4-.24,14.36-.74,22.18l-1.01-.06c.5-7.8.63-15.75.74-22.14.03-1.45.05-2.83.07-4.1.05-2.48.23-5.04.42-7.77.12-1.78.25-3.58.34-5.37-5.83-2.38-11.88-8.59-12.23-14.93-.32-5.68,2.3-6.68,3.49-6.84,3.51-.5,7.99,3.66,9.05,8.4.87,3.91.93,8.26.73,12.68.31.11.62.21.92.29.8.22,1.64.34,2.51.38.38-7.71,1.06-14.46,2.24-17.1,1.83-4.09,4.82-5.85,8.02-4.7,3.62,1.3,6.59,6.25,5.23,11.54-.92,3.59-3.55,6.88-7.22,9.03-2.36,1.38-4.89,2.15-7.31,2.25-.52,11.35-.46,24.77-.28,30.8.03.92.12,2.28.2,3.57.09,1.48.18,2.77.17,3.32Zm-.04-38.72c2.22-.11,4.56-.83,6.75-2.11,3.44-2.02,5.89-5.07,6.75-8.4,1.2-4.67-1.46-9.18-4.59-10.31-2.68-.97-5.14.55-6.76,4.15-1.1,2.46-1.76,9.02-2.15,16.67Zm-14.11-20.72c-1.86.28-2.79,2.33-2.6,5.77.32,5.83,5.85,11.57,11.27,13.9.17-4.23.09-8.36-.72-12.06-1.02-4.56-5.21-8-7.92-7.61-.01,0-.02,0-.03,0Z"/>
        </g>
        <path class="cls-8" d="m532.08,278.53c1.29,4.81,5.99,8.38,11.57,8.35,5.59-.02,10.25-3.63,11.51-8.46l-23.08.1Z"/>
        <path class="cls-8" d="m526.97,259.2l.18,12.3c.07,4.52,3.84,8.13,8.42,8.06l16.32-.25c4.58-.07,8.23-3.8,8.17-8.33l-.19-12.29-32.9.5Z"/>
        <polygon class="cls-17" points="532.21 278.58 554.97 278.43 554.39 280.47 532.83 280.47 532.21 278.58"/>
        <g>
          <rect class="cls-17" x="527.06" y="264.95" width="32.95" height="2.4"/>
          <rect class="cls-17" x="527.06" y="261.03" width="32.95" height="2.4"/>
          <rect class="cls-17" x="527.06" y="269.13" width="32.95" height="1.86"/>
        </g>
      </g>
      <path class="cls-2" d="m541.03,271.03c-.42.16-.84.29-1.23.26-.25-.02-.38-.24-.29-.48.06-.15.12-.29.18-.43.12-.55.26-1.1.31-1.66-.03-.24-.08-.48-.13-.73,0-.05-.03-.08-.05-.11-.19-.18-.5-.12-.79.35-.2.31-.39.62-.57.93-.81,1.37-1.82,3.06-3.32,3.68-1.72.71-3.75,1.21-5.78,1.35-.94.12-1.9.19-2.9.21-1.19.03-2.48.03-3.7-.22-4.25-.08-8.24-1.3-11.69-4.19-1.75-1.46-2.99-3.43-4.46-5.13-.69-.8-2.02.06-2.62.54-.87.71-2.26,1.73-2.13,3.03.01.12.04.25.07.37,1.26,2.28,3.18,4.07,5.17,5.7.79.64,1.63,1.21,2.47,1.77,1.11.54,2.29.98,3.55,1.31,4.37,1.14,8.76.89,13.18.76.04-.04.1-.06.17-.07,3.66-.28,7.23-1.3,10.84-1.72.27-.1,2.67-.2,3.57-.33,1.26-.18,3.65-1.87,4.6-2.64-.03-.82-.21-1.83-.42-2.58-.64-.78-2.97.04-4.03.04Z"/>
    </g>
    <path class="cls-2" d="m543.08,257.82c.42.17.83.32,1.22.3.25-.01.39-.22.31-.47-.05-.15-.11-.3-.17-.44-.1-.55-.23-1.11-.26-1.67.04-.24.09-.48.16-.72.01-.05.04-.08.06-.11.2-.17.5-.1.78.38.19.32.37.63.54.95.77,1.4,1.72,3.12,3.2,3.79,1.7.77,3.71,1.34,5.74,1.54.94.16,1.89.25,2.89.31,1.19.06,2.48.11,3.7-.1,4.25.06,8.27-1.03,11.82-3.8,1.79-1.4,3.1-3.33,4.62-4.98.72-.78,2.02.13,2.6.63.85.74,2.2,1.81,2.04,3.1-.02.12-.05.25-.08.37-1.33,2.23-3.31,3.96-5.35,5.52-.81.61-1.67,1.15-2.53,1.69-1.12.5-2.32.9-3.59,1.19-4.41.99-8.78.6-13.2.32-.05-.04-.1-.07-.17-.08-3.65-.41-7.18-1.55-10.78-2.09-.27-.11-.54-.19-.82-.25-.91-.18-1.82-.23-2.74-.2-1.18-.47-2.2-1.12-3.13-1.92.05-.82.1-1.64.33-2.39.66-.76,1.75-.91,2.81-.87Z"/>
  </g>
  <g>
    <path class="cls-8" d="m361.82,246.44l-.74-5.03c-.17-1.17-1.28-1.97-2.47-1.78l-1.6.24c-1.02.16-2.02-.33-2.48-1.22-.36-.68-.76-1.33-1.19-1.95-.58-.83-.55-1.93.06-2.75l.96-1.28c.72-.95.52-2.29-.45-2.98l-4.16-3c-.96-.7-2.33-.49-3.04.47l-.97,1.28c-.61.82-1.68,1.17-2.66.88-.73-.22-1.49-.41-2.26-.55-1-.18-1.78-.96-1.92-1.96l-.23-1.57c-.17-1.16-1.28-1.96-2.47-1.78l-5.13.79c-1.19.18-2.01,1.27-1.84,2.44l.23,1.56c.14,1-.37,1.98-1.28,2.46-.69.36-1.36.76-2,1.19-.85.57-1.97.56-2.79-.04l-1.29-.94c-.97-.69-2.33-.49-3.05.47l-3.1,4.12c-.72.95-.52,2.29.44,2.98l1.29.93c.83.6,1.18,1.64.86,2.61-.23.72-.43,1.46-.57,2.22-.19.99-1.01,1.76-2.02,1.92l-1.59.24c-1.19.18-2.02,1.28-1.84,2.44l.75,5.03c.17,1.17,1.28,1.96,2.47,1.78l1.6-.24c1.02-.16,2.02.33,2.49,1.22.36.67.76,1.32,1.19,1.95.58.83.55,1.93-.07,2.74l-.96,1.28c-.72.96-.52,2.29.45,2.99l4.16,3c.96.7,2.32.49,3.05-.47l.96-1.28c.62-.81,1.68-1.17,2.66-.87.74.22,1.49.4,2.25.54,1.01.17,1.78.96,1.93,1.96l.23,1.56c.18,1.17,1.28,1.97,2.47,1.78l5.13-.79c1.19-.18,2.02-1.28,1.84-2.45l-.23-1.56c-.15-1,.36-1.98,1.26-2.45.7-.37,1.36-.76,2-1.2.85-.57,1.98-.55,2.8.04l1.3.93c.96.69,2.32.49,3.05-.47l3.1-4.11c.72-.95.52-2.29-.45-2.99l-1.29-.93c-.82-.59-1.17-1.64-.85-2.61.23-.72.42-1.46.57-2.21.19-.99,1-1.76,2.02-1.91l1.6-.24c1.19-.19,2.01-1.27,1.84-2.44Zm-22,12.48c-7.12,1.66-13.96-3.27-14.44-10.42-.38-5.63,3.55-10.83,9.15-12.14,7.12-1.66,13.95,3.27,14.43,10.42.38,5.62-3.55,10.82-9.15,12.13Z"/>
    <g>
      <g>
        <path class="cls-16" d="m311.81,328l-40.08-.36c-3.59,0-6.83,3.25-6.83,7.26v7.93c0,4.01,3.25,7.26,6.83,7.26l40.08-.27v-21.82Z"/>
        <path class="cls-10" d="m322.73,338.27c0-4.47,2.89-7.86,7.09-9.74-.31-.01-.62.46-.93.46h-19.11c-7.5,0-14.06,3.59-14.06,9.2v.73c0,5.61,6.56,11.15,14.06,11.15h19.11c.72,0,2.58-.04,3.27-.12-4.84-1.64-9.43-6.8-9.43-11.68Z"/>
        <polygon class="cls-9" points="284.37 350.21 281.27 350.18 281.27 327.72 284.37 327.76 284.37 350.21"/>
      </g>
      <g>
        <path class="cls-17" d="m326.67,350.07h-54.94c-3.22,0-5.93,2.63-5.93,6.41v7.47c0,3.78,2.71,6.15,5.93,6.15h54.94v-20.03Z"/>
        <rect class="cls-8" x="271.73" y="349.82" width="4.06" height="20.54"/>
        <rect class="cls-8" x="286.98" y="349.82" width="4.06" height="20.54"/>
      </g>
      <g>
        <path class="cls-8" d="m319.45,310.01h-48.41c-2.9,0-5.24,2.42-5.24,5.82v6.72c0,3.4,2.35,6.44,5.24,6.44h48.41v-18.98Z"/>
        <rect class="cls-17" x="271.04" y="309.85" width="3.64" height="18.45"/>
        <rect class="cls-17" x="284.74" y="309.85" width="3.64" height="18.45"/>
      </g>
      <g>
        <g>
          <path class="cls-2" d="m298.81,242.57c-1.85-.7-4.27-.61-6.14-.08-2,.56-3.13,2.21-3.78,4.11-.65,1.89-.65,4.16.81,5.65.31.32.71.57,1.04.87.74.66.56,1.99.5,2.89-.12,1.73-.99,3.32-2.24,4.44-.11.02-.21.08-.28.19-.02.03-.03.05-.04.08-.05.04-.09.08-.14.12-.09.07-.08.17-.02.24-.7,2.28,4.42,4.33,5.83,4.79.98.32,2.87.41,3.66-.35.43-.41.12-1.44.03-1.91-.29-1.45-.23-2.97-.14-4.44,3.36-.17,4.79-4.34,5.44-7.2.9-3.93-.65-7.95-4.5-9.41Z"/>
          <path class="cls-15" d="m308.47,242.8c-.13-.7-.59-1.23-1.12-1.66-.94-.76-4.01-.19-3.98-1.96.03-1.87-1.64-2.21-3.13-1.94-.59.11-1.14.28-1.75.31-.67.04-1.3-.57-1.83-.91-.65-.42-1.76-.57-2.47-.27-.96.39-1.59,1.28-2.39,1.93-.72.59-1.27,1.18-1.64,1.98-1.56,1.56-2.36,3.54-2.43,5.93-.06,2.05.42,6.16,2.84,6.8.3.08.52-.22.4-.49-.45-1-.9-2.03-.9-3.14.67-.58,1.07-.58,1.2-.01.12.28.23.52.4.77.54.81,1.13,1.57,1.68,2.37.12.17.33.24.5.08.52-.47.57-1.02.53-1.7-.09-1.62-.46-2.83.8-4.17,2.43-2.62,6.68-.54,7.75,2.29.61,1.6,3.19-.44,3.74-1,1.31-1.35,2.14-3.31,1.79-5.21Z"/>
        </g>
        <path class="cls-2" d="m332.61,265.36c-.47-.03-.87.16-1.3.35-1.55.69-3.2,1.35-4.9,1.43-.28.01-.55-.02-.83-.05-.98.26-1.92.59-2.72,1.4-.01.01-.03.02-.04.03-.1.14-.2.28-.3.42-1.34,1.88-2.59,3.87-3.49,6.02-.16.38-.31.76-.45,1.15-.12.34-.24.69-.35,1.03-1.27,3.64-2.09,8.06-4.8,10.91-.03.03-.06.05-.09.06-.34.42-.68.6-.85-.05-.4-1.49-1.01-2.8-1.59-4.22-.3-.73-.65-1.44-.97-2.17-.27-.62-.29-1.45-.59-2.03-.28-.54-.9-.65-1.42-.45-1.01.39-1.85,1.06-2.9,1.35-.62.17-1.71.2-2.07.88-.65,1.21-.09,3.77.74,4.92.28,1.55.94,2.94,1.61,4.38.75,1.63,1.26,3.33,2.44,4.7,1.96,2.27,5.41,2.12,7.46.25,3.1-2.83,4.22-7.37,5.28-11.3.62-2.29,1.39-4.53,2.16-6.78.72-2.1.98-5.05,3.14-6.17,2.39-1.25,6.73-.82,7.47-4.28.1-.46.11-1.73-.62-1.78Z"/>
        <g>
          <g>
            <path class="cls-10" d="m326.58,358.86c-.03-.13-.16-.26-.3-.25-.55.02-1.13.13-1.7.15-.04-.03-.08-.06-.13-.07-.38-.06-.75-.12-1.13-.17-.04-.02-.07-.03-.11-.05-.09-.05-.2-.04-.29.01-.12-.01-.24-.03-.37-.04-.2,0-.33.14-.36.32-.64.38-.36,1.96-.33,2.48.06,1.16-.31,2.51.51,3.45.91,1.04,2.66.76,3.87.38.13.06.29.04.4-.05.16-.02.28-.15.29-.32.09-1.96,0-3.94-.35-5.87Z"/>
            <path class="cls-8" d="m331.22,368.16c-.66-.66-1.17-1.41-1.73-2.15-.4-.52-1.19-1.75-1.83-2.02-.69-.3-1.24.2-1.95.27-1.59.14-2.3-1.12-3.6-1.55-.2-.06-.34.03-.42.17-2.19,1.03-2.34,5.4.04,6.21,1.23.42,1.87,1.41,2.67,2.36.56.66,1.3.98,2.07,1.28,1.61.61,3.59,1.02,5.31.74,3.81-.62.88-3.86-.57-5.32Z"/>
          </g>
          <path class="cls-13" d="m333.11,316.27c-.16-2.25-1.15-3.93-3-5.14-3.21-2.09-6.63-3.89-10.01-5.67-3.26-1.71-6.56-3.25-9.91-4.75-1.74-.78-3.41-1.71-5.14-2.51-1.58-.74-3.13-1.36-4.48-2.49-.16-.13-.41-.06-.55.06-.76.63-1.41,1.42-2.23,1.97-.04.01-.08.02-.12.05-.11.07-.22.14-.32.22-.09.06-.15.15-.18.23-.54.3-1.1.56-1.73.71-1.08.26-1.22,1.31-1.1,2.29.52,4.19,1.05,8.33,2.55,12.3,1.43,3.78,3.43,6.59,7.25,7.97,1.88.68,3.87.71,5.84.71,2.27-.01,4.54.21,6.8.11,1.44-.06,1.66,1.13,1.53,2.33-.12,1.1-.03,2.25-.01,3.36.05,2.68.25,5.35.46,8.02.4,5.14,1.02,10.26,1.42,15.4.15,1.89.42,3.74.66,5.62.14,1.09.19,2.72,1.2,3.36.93.59,2.56.1,3.53-.06.78-.13,2.08,0,2.48-.91.44-1.01.22-2.35.26-3.42.07-1.84.31-3.67.55-5.5.55-4.13,1.31-8.24,2.04-12.34,1.29-7.16,2.71-14.6,2.21-21.92Z"/>
        </g>
        <g>
          <g>
            <path class="cls-10" d="m344.02,370.06c-.55-.23-1.07-.55-1.59-.86-.55-.56-1.27-1.04-1.91-1.36-.1-.15-.2-.3-.29-.46-.08-.15-.31-.22-.44-.07-.69.81-1.53,1.48-2.23,2.29-.07.04-.14.07-.21.1-.17.09-.24.32-.15.5.3.57.66,1.13.99,1.7.1.27.23.53.39.76.21.47.36.97.4,1.5.02.27.26.47.52.34.31-.17.62-.31.93-.44.06,0,.11,0,.18,0,1.58-.19,3.02-2.22,3.6-3.61.07-.17-.06-.33-.2-.38Z"/>
            <path class="cls-8" d="m350.78,365.24c-1.07.11-2.12,1.3-2.87,1.97-.53.48-1.05.99-1.69,1.3-.91.44-1.96.3-2.88.76-.15.08-.2.24-.18.4.34,2.13-3.34,2.65-4.33,3.98-.13.17-.07.33.05.43.03,2.6,2.91,5.25,5.36,3.85,1.23-.71,2.06-2.1,3.03-3.11,1.29-1.35,2.88-2.25,4.06-3.76.97-1.24,2.44-6.14-.54-5.82Z"/>
          </g>
          <path class="cls-5" d="m341.45,367.5c-.09-.15-.17-.27-.29-.42-.05-.07-.11-.1-.18-.11-.86-1.04-1.81-1.98-2.74-2.96-1.15-1.21-2.1-2.58-3.18-3.85-2.32-2.74-4.79-5.28-6.86-8.24-2.01-2.87-4.02-5.75-5.95-8.68-1.92-2.92-4.29-5.93-5.25-9.35-.4-1.41-.69-2.65-1.5-3.89-.86-1.32-1.82-2.57-2.74-3.85-2.18-3.04-3.83-6.44-5.52-9.77-1.61-3.18-3.35-6.29-5.09-9.4-1.47-2.63-3.94-5.71-3.82-8.89,0-.29-.29-.47-.53-.34-2.86,1.43-5.98,1.39-9.08,1.42-3.32.03-6.63.37-9.96.47-.03,0-.04.02-.06.03-.1-.09-.3-.09-.36.09-.56,1.45-.08,3.05.32,4.49.56,2.03,1.25,4,2.03,5.95,1.74,4.33,2.9,8.97,5.6,12.8,2.76,3.91,5.99,7.02,9.74,9.91,1.75,1.35,3.54,2.52,5.45,3.62,2.2,1.27,4.04,2.84,5.75,4.72,3.14,3.45,5.94,7.27,8.92,10.86,3.1,3.74,6.39,7.1,10.03,10.29,1.67,1.47,3.35,2.93,5.07,4.36.92.77,1.86,1.52,2.8,2.27.59.47,1.26,1.15,1.96,1.56.25.38.5.76.8,1.1.12.13.3.12.43.01.04-.04.08-.07.12-.11.03,0,.05.01.08,0,1.08-.09,3.06-1.3,3.73-2.57.32-.32.56-.69.54-1.14,0-.21-.13-.34-.29-.4Z"/>
        </g>
        <g>
          <path class="cls-9" d="m310.36,278.5c-.02-.37-.05-.74-.06-1.11,0-.16,0-.32.02-.48,0-.06,0-.1-.03-.15-.1-4.52-.71-9.56-4.13-12.77-1.69-1.58-3.91-2.41-6.19-2.26-1.05.07-1.77.58-2.65,1.1-1.83,1.08-3.81.58-5.58-.33-1.29-.66-2.36-1.52-2.97-2.87-.32-.7-.59-1.26-1.33-1.5-1.08-.35-2.05-.34-2.98-.11-4.1-.72-8.94,1.96-11.25,5.17-1.54,2.14-2.23,4.68-3.11,7.15-.5,1.42-1.1,2.79-1.53,4.25-.37,1.26-.33,2.53-.47,3.82,0,.05,0,.1.03.15.03-.01.05-.02.08-.03,2.46-.25,4.83-.64,7.1.59.14.08.17.23.15.37-.02.16-.04.32-.06.48.42,1.1.24,2.4.2,3.54-.09,2.25.12,4.58.36,6.82.41,3.91,1.5,7.74,1.93,11.64,1.5-1.39,3.38-1.36,5.32-1.28,1.98.08,3.86.28,5.82.61,3.36.57,6.58.26,9.72-1.13,2.65-1.17,2.59-3.48,2.61-6.12.01-2.76.49-5.52.42-8.27.11.26.23.53.37.78.15.26.49.27.65.02,1.22-1.92,3.25-2.47,5.16-3.35.93-.22,1.87-.37,2.8-.5.11-.02.22-.15.22-.27-.05-1.36-.45-2.65-.6-3.97Z"/>
          <g class="cls-14">
            <path class="cls-13" d="m301.69,284.94c.04-.48.05-.97-.06-1.45,0-.47-.01-.93,0-1.4.01-.36-.45-.4-.58-.1-.94,2.26-2.54,4.09-4.32,5.72-1,.91-2.05,2.04-3.18,2.96-.88.52-1.77.99-2.48,1.47-.26.17-.27.6.07.7,1.06.32,2.23-.39,3.16-.83,1.34-.63,2.57-1.33,3.83-2.08-.98,2.32-2.98,4.01-4.95,5.49-1.29.98-2.67,1.82-4.05,2.64-.96.57-2.4,1.54-3.57,1.6-.04,0-.08-.01-.13,0-.02,0-.04.01-.06.01,0,0-.02,0-.03,0-.07,0-.14.02-.19.05-.01,0-.03,0-.04.01-.04,0-.07.03-.09.06-.08.01-.15.03-.23.04-.18.03-.22.22-.17.36-.05.15-.02.34.12.42.88.5,1.81.63,2.8.76,1.57.2,3,.58,4.6.58,1.49,0,2.94-.12,4.27-.57,1.62-.31,3.17-1.03,4.26-2.27,1.59-1.81,1.03-5,1.2-7.21.19-2.33-.07-4.64-.2-6.96Z"/>
          </g>
        </g>
        <g>
          <path class="cls-2" d="m293.86,317.07c-.14-1.4-1.7-1.91-2.7-2.58-1.1-.74.72-.97,1.17-1.48.37-.42.13-.95-.3-1.14-.82-.38-2.32.08-3.15.21-1.2.18-2.29-.05-3.47-.16-2.3-1.65-4.21-3.61-5.69-6.15-1.05-1.81-2-3.72-2.83-5.64-1.11-2.56-.96-5.07-.99-7.8-.05-4.07-.2-8.09.15-12.14.08-.88-.19-1.24-1-1.48-1.63-.48-3.46-.57-5.14-.55h-.02s-.04,0-.06.01c0,0-.02,0-.03,0-.1.04-.15.14-.14.24h0c-.02.05,0,.11.03.14.04.03.07.07.1.11-.19.43-.42,1.66-.45,1.82-.18,1-.31,1.99-.34,3.01-.1,2.59.06,5.18.26,7.77.32,4.23.95,8.51,3.03,12.25,2,3.6,5.11,6.43,8.22,9,2.15,1.78,4.18,3.74,6.41,5.41,1.46,1.1,3.89,2.77,5.72,1.57.69-.45,1.32-1.6,1.23-2.44Z"/>
          <path class="cls-11" d="m269.33,280.5h0s0,.03,0,0Z"/>
        </g>
      </g>
    </g>
  </g>
</svg>